<?xml version="1.0" encoding="UTF-8" standalone="no"?>
<!DOCTYPE svg PUBLIC "-//W3C//DTD SVG 1.1//EN"
 "http://www.w3.org/Graphics/SVG/1.1/DTD/svg11.dtd">
<!-- Generated by graphviz version 2.40.1 (20161225.0304)
 -->
<!-- Title: G Pages: 1 -->
<svg width="1026pt" height="821pt"
 viewBox="0.00 0.00 1025.95 820.95" xmlns="http://www.w3.org/2000/svg" xmlns:xlink="http://www.w3.org/1999/xlink">
<g id="graph0" class="graph" transform="scale(1 1) rotate(0) translate(0 820.9533)">
<title>G</title>
<polygon fill="#ffffff" stroke="transparent" points="0,0 0,-820.9533 1025.9473,-820.9533 1025.9473,0 0,0"/>
<!-- 1960 -->
<!-- 1967 -->
<!-- 1960&#45;&gt;1967 -->
<!-- 1968 -->
<!-- 1967&#45;&gt;1968 -->
<!-- 1969 -->
<!-- 1968&#45;&gt;1969 -->
<!-- 1970 -->
<!-- 1969&#45;&gt;1970 -->
<!-- 1972 -->
<!-- 1970&#45;&gt;1972 -->
<!-- 1978 -->
<!-- 1972&#45;&gt;1978 -->
<!-- 1980 -->
<!-- 1978&#45;&gt;1980 -->
<!-- 1985 -->
<!-- 1980&#45;&gt;1985 -->
<!-- 1986 -->
<!-- 1985&#45;&gt;1986 -->
<!-- 1987 -->
<!-- 1986&#45;&gt;1987 -->
<!-- 1988 -->
<!-- 1987&#45;&gt;1988 -->
<!-- 1989 -->
<!-- 1988&#45;&gt;1989 -->
<!-- 1991 -->
<!-- 1989&#45;&gt;1991 -->
<!-- 1992 -->
<!-- 1991&#45;&gt;1992 -->
<!-- 2009 -->
<!-- 1992&#45;&gt;2009 -->
<!-- a0 -->
<g id="node17" class="node">
<title>a0</title>
<text text-anchor="middle" x="274.7449" y="-516.8" font-family="Times,serif" font-size="14.00" fill="#000000">CSP</text>
<text text-anchor="middle" x="274.7449" y="-501.8" font-family="Times,serif" font-size="14.00" fill="#000000">(Hoare, 1978)</text>
</g>
<!-- a1 -->
<g id="node18" class="node">
<title>a1</title>
<polygon fill="#00ff00" stroke="transparent" points="347.2449,-440 202.2449,-440 202.2449,-402 347.2449,-402 347.2449,-440"/>
<text text-anchor="middle" x="274.7449" y="-424.8" font-family="Times,serif" font-size="14.00" fill="#000000">Squeek</text>
<text text-anchor="middle" x="274.7449" y="-409.8" font-family="Times,serif" font-size="14.00" fill="#000000">(Cardelli &amp; Pike, 1985)</text>
</g>
<!-- a0&#45;&gt;a1 -->
<g id="edge16" class="edge">
<title>a0&#45;&gt;a1</title>
<path fill="none" stroke="#000000" d="M274.7449,-493.9375C274.7449,-481.3553 274.7449,-464.6215 274.7449,-450.3561"/>
<polygon fill="#000000" stroke="#000000" points="278.245,-450.038 274.7449,-440.038 271.245,-450.0381 278.245,-450.038"/>
</g>
<!-- a2 -->
<g id="node19" class="node">
<title>a2</title>
<polygon fill="#00ff00" stroke="transparent" points="316.7449,-228 232.7449,-228 232.7449,-190 316.7449,-190 316.7449,-228"/>
<text text-anchor="middle" x="274.7449" y="-212.8" font-family="Times,serif" font-size="14.00" fill="#000000">Newsqueek</text>
<text text-anchor="middle" x="274.7449" y="-197.8" font-family="Times,serif" font-size="14.00" fill="#000000">(Pike, 1989)</text>
</g>
<!-- a1&#45;&gt;a2 -->
<g id="edge17" class="edge">
<title>a1&#45;&gt;a2</title>
<path fill="none" stroke="#000000" d="M274.7449,-401.8125C274.7449,-364.6188 274.7449,-282.4997 274.7449,-238.3869"/>
<polygon fill="#000000" stroke="#000000" points="278.245,-238.2968 274.7449,-228.2969 271.245,-238.2969 278.245,-238.2968"/>
</g>
<!-- a3 -->
<g id="node20" class="node">
<title>a3</title>
<text text-anchor="middle" x="274.7449" y="-105.8" font-family="Times,serif" font-size="14.00" fill="#000000">Alef</text>
<text text-anchor="middle" x="274.7449" y="-90.8" font-family="Times,serif" font-size="14.00" fill="#000000">(Winterbottom, 1992)</text>
</g>
<!-- a2&#45;&gt;a3 -->
<g id="edge18" class="edge">
<title>a2&#45;&gt;a3</title>
<path fill="none" stroke="#000000" d="M274.7449,-189.8705C274.7449,-173.6147 274.7449,-150.0171 274.7449,-131.3683"/>
<polygon fill="#000000" stroke="#000000" points="278.245,-131.3246 274.7449,-121.3246 271.245,-131.3246 278.245,-131.3246"/>
</g>
<!-- end -->
<g id="node26" class="node">
<title>end</title>
<ellipse fill="#c0c0c0" stroke="#c0c0c0" cx="647.7449" cy="-37" rx="91.4341" ry="37.4533"/>
<text text-anchor="middle" x="647.7449" y="-48.3" font-family="Times,serif" font-size="14.00" fill="#000000">Go</text>
<text text-anchor="middle" x="647.7449" y="-33.3" font-family="Times,serif" font-size="14.00" fill="#000000">(Griesemer, Pike,</text>
<text text-anchor="middle" x="647.7449" y="-18.3" font-family="Times,serif" font-size="14.00" fill="#000000">&amp; Thompson, 2009)</text>
</g>
<!-- a3&#45;&gt;end -->
<g id="edge30" class="edge">
<title>a3&#45;&gt;end</title>
<path fill="none" stroke="#000000" d="M345.3419,-89.6976C404.2827,-79.4264 488.8118,-64.6961 553.5243,-53.4191"/>
<polygon fill="#000000" stroke="#000000" points="554.4825,-56.805 563.7331,-51.6401 553.2807,-49.9089 554.4825,-56.805"/>
</g>
<!-- start -->
<g id="node21" class="node">
<title>start</title>
<text text-anchor="middle" x="647.7449" y="-805.8" font-family="Times,serif" font-size="14.00" fill="#000000">ALGO 60</text>
<text text-anchor="middle" x="647.7449" y="-790.8" font-family="Times,serif" font-size="14.00" fill="#000000">(Backus et al., 1960)</text>
</g>
<!-- b0 -->
<g id="node22" class="node">
<title>b0</title>
<text text-anchor="middle" x="647.7449" y="-623.8" font-family="Times,serif" font-size="14.00" fill="#000000">Pascal</text>
<text text-anchor="middle" x="647.7449" y="-608.8" font-family="Times,serif" font-size="14.00" fill="#000000">(Wirth, 1970)</text>
</g>
<!-- start&#45;&gt;b0 -->
<g id="edge19" class="edge">
<title>start&#45;&gt;b0</title>
<path fill="none" stroke="#000000" d="M647.7449,-782.8668C647.7449,-751.0527 647.7449,-687.0635 647.7449,-649.4586"/>
<polygon fill="#000000" stroke="#000000" points="651.245,-649.1499 647.7449,-639.1499 644.245,-649.15 651.245,-649.1499"/>
</g>
<!-- c0 -->
<g id="node27" class="node">
<title>c0</title>
<text text-anchor="middle" x="911.7449" y="-759.8" font-family="Times,serif" font-size="14.00" fill="#000000">BCPL</text>
<text text-anchor="middle" x="911.7449" y="-744.8" font-family="Times,serif" font-size="14.00" fill="#000000">(Richards, 1967)</text>
</g>
<!-- start&#45;&gt;c0 -->
<g id="edge26" class="edge">
<title>start&#45;&gt;c0</title>
<path fill="none" stroke="#000000" d="M712.3266,-790.7471C753.0821,-783.6458 805.5585,-774.5022 846.4497,-767.3772"/>
<polygon fill="#000000" stroke="#000000" points="847.0644,-770.8229 856.3151,-765.6582 845.8627,-763.9268 847.0644,-770.8229"/>
</g>
<!-- b0&#45;&gt;a2 -->
<g id="edge27" class="edge">
<title>b0&#45;&gt;a2</title>
<path fill="none" stroke="#000000" d="M599.9266,-612.983C546.0031,-602.0497 465.7449,-575.3107 465.7449,-513 465.7449,-513 465.7449,-513 465.7449,-315 465.7449,-251.3188 383.5684,-225.5725 327.0194,-215.3944"/>
<polygon fill="#000000" stroke="#000000" points="327.5773,-211.9391 317.134,-213.7245 326.4113,-218.8413 327.5773,-211.9391"/>
</g>
<!-- b1 -->
<g id="node23" class="node">
<title>b1</title>
<text text-anchor="middle" x="647.7449" y="-470.8" font-family="Times,serif" font-size="14.00" fill="#000000">Modula&#45;2</text>
<text text-anchor="middle" x="647.7449" y="-455.8" font-family="Times,serif" font-size="14.00" fill="#000000">(Wirth, 1980)</text>
</g>
<!-- b0&#45;&gt;b1 -->
<g id="edge20" class="edge">
<title>b0&#45;&gt;b1</title>
<path fill="none" stroke="#000000" d="M647.7449,-600.9318C647.7449,-574.7052 647.7449,-527.2556 647.7449,-496.449"/>
<polygon fill="#000000" stroke="#000000" points="651.245,-496.3085 647.7449,-486.3085 644.245,-496.3085 651.245,-496.3085"/>
</g>
<!-- b2 -->
<g id="node24" class="node">
<title>b2</title>
<text text-anchor="middle" x="647.7449" y="-378.3" font-family="Times,serif" font-size="14.00" fill="#000000">Oberon</text>
<text text-anchor="middle" x="647.7449" y="-363.3" font-family="Times,serif" font-size="14.00" fill="#000000">(Wirth &amp; Gutknecht,</text>
<text text-anchor="middle" x="647.7449" y="-348.3" font-family="Times,serif" font-size="14.00" fill="#000000">1986)</text>
</g>
<!-- b1&#45;&gt;b2 -->
<g id="edge21" class="edge">
<title>b1&#45;&gt;b2</title>
<path fill="none" stroke="#000000" d="M647.7449,-447.719C647.7449,-435.388 647.7449,-418.9871 647.7449,-404.1909"/>
<polygon fill="#000000" stroke="#000000" points="651.245,-403.7817 647.7449,-393.7817 644.245,-403.7818 651.245,-403.7817"/>
</g>
<!-- b3 -->
<g id="node25" class="node">
<title>b3</title>
<text text-anchor="middle" x="647.7449" y="-166.3" font-family="Times,serif" font-size="14.00" fill="#000000">Oberon 2</text>
<text text-anchor="middle" x="647.7449" y="-151.3" font-family="Times,serif" font-size="14.00" fill="#000000">(Wirth &amp; Mossenbock,</text>
<text text-anchor="middle" x="647.7449" y="-136.3" font-family="Times,serif" font-size="14.00" fill="#000000">1991)</text>
</g>
<!-- b2&#45;&gt;b3 -->
<g id="edge22" class="edge">
<title>b2&#45;&gt;b3</title>
<path fill="none" stroke="#000000" d="M647.7449,-340.1501C647.7449,-302.5568 647.7449,-234.1049 647.7449,-191.7917"/>
<polygon fill="#000000" stroke="#000000" points="651.245,-191.6319 647.7449,-181.6319 644.245,-191.632 651.245,-191.6319"/>
</g>
<!-- o0 -->
<g id="node30" class="node">
<title>o0</title>
<polygon fill="#0000ff" stroke="transparent" points="894.7449,-288.5 760.7449,-288.5 760.7449,-235.5 894.7449,-235.5 894.7449,-288.5"/>
<text text-anchor="middle" x="827.7449" y="-273.3" font-family="Times,serif" font-size="14.00" fill="#000000">Object Oberon</text>
<text text-anchor="middle" x="827.7449" y="-258.3" font-family="Times,serif" font-size="14.00" fill="#000000">(Mossenbock, Templ</text>
<text text-anchor="middle" x="827.7449" y="-243.3" font-family="Times,serif" font-size="14.00" fill="#000000">&amp; Greisemer, 1990)</text>
</g>
<!-- b2&#45;&gt;o0 -->
<g id="edge28" class="edge">
<title>b2&#45;&gt;o0</title>
<path fill="none" stroke="#000000" d="M693.6323,-340.2324C717.9506,-326.0467 747.9775,-308.531 773.4502,-293.6719"/>
<polygon fill="#000000" stroke="#000000" points="775.3791,-296.5987 782.2534,-288.5367 771.852,-290.5523 775.3791,-296.5987"/>
</g>
<!-- b3&#45;&gt;end -->
<g id="edge23" class="edge">
<title>b3&#45;&gt;end</title>
<path fill="none" stroke="#000000" d="M647.7449,-128.224C647.7449,-115.4064 647.7449,-99.6618 647.7449,-84.8828"/>
<polygon fill="#000000" stroke="#000000" points="651.245,-84.8533 647.7449,-74.8533 644.245,-84.8534 651.245,-84.8533"/>
</g>
<!-- c1 -->
<g id="node28" class="node">
<title>c1</title>
<polygon fill="#ff0000" stroke="transparent" points="972.2449,-685 851.2449,-685 851.2449,-647 972.2449,-647 972.2449,-685"/>
<text text-anchor="middle" x="911.7449" y="-669.8" font-family="Times,serif" font-size="14.00" fill="#000000">B</text>
<text text-anchor="middle" x="911.7449" y="-654.8" font-family="Times,serif" font-size="14.00" fill="#000000">(Thompson, 1969)</text>
</g>
<!-- c0&#45;&gt;c1 -->
<g id="edge24" class="edge">
<title>c0&#45;&gt;c1</title>
<path fill="none" stroke="#000000" d="M911.7449,-736.9133C911.7449,-724.8617 911.7449,-709.0486 911.7449,-695.4137"/>
<polygon fill="#000000" stroke="#000000" points="915.245,-695.0591 911.7449,-685.0592 908.245,-695.0592 915.245,-695.0591"/>
</g>
<!-- c2 -->
<g id="node29" class="node">
<title>c2</title>
<polygon fill="#ff0000" stroke="transparent" points="968.2449,-592.5 855.2449,-592.5 855.2449,-539.5 968.2449,-539.5 968.2449,-592.5"/>
<text text-anchor="middle" x="911.7449" y="-577.3" font-family="Times,serif" font-size="14.00" fill="#000000">C</text>
<text text-anchor="middle" x="911.7449" y="-562.3" font-family="Times,serif" font-size="14.00" fill="#000000">(Ritchie,</text>
<text text-anchor="middle" x="911.7449" y="-547.3" font-family="Times,serif" font-size="14.00" fill="#000000">Thompson 1972)</text>
</g>
<!-- c1&#45;&gt;c2 -->
<g id="edge25" class="edge">
<title>c1&#45;&gt;c2</title>
<path fill="none" stroke="#000000" d="M911.7449,-646.719C911.7449,-634.388 911.7449,-617.9871 911.7449,-603.1909"/>
<polygon fill="#000000" stroke="#000000" points="915.245,-602.7817 911.7449,-592.7817 908.245,-602.7818 915.245,-602.7817"/>
</g>
<!-- c2&#45;&gt;end -->
<g id="edge31" class="edge">
<title>c2&#45;&gt;end</title>
<path fill="none" stroke="#000000" d="M959.7449,-539.4837C983.7449,-522.3949 1007.7449,-497.6449 1007.7449,-467 1007.7449,-467 1007.7449,-467 1007.7449,-155 1007.7449,-99.6463 852.1141,-66.0706 745.5074,-49.5645"/>
<polygon fill="#000000" stroke="#000000" points="745.763,-46.0632 735.3505,-48.0203 744.7108,-52.9837 745.763,-46.0632"/>
</g>
<!-- o0&#45;&gt;b3 -->
<g id="edge29" class="edge">
<title>o0&#45;&gt;b3</title>
<path fill="none" stroke="#000000" d="M782.7876,-235.2754C757.9957,-220.5379 727.0597,-202.1483 701.0548,-186.6898"/>
<polygon fill="#000000" stroke="#000000" points="702.8251,-183.6705 692.4407,-181.5692 699.2482,-189.6876 702.8251,-183.6705"/>
</g>
</g>
</svg>
