<?xml version="1.0" encoding="UTF-8" standalone="no"?>
<!DOCTYPE svg PUBLIC "-//W3C//DTD SVG 1.1//EN"
 "http://www.w3.org/Graphics/SVG/1.1/DTD/svg11.dtd">
<!-- Generated by graphviz version 2.40.1 (20161225.0304)
 -->
<!-- Title: G Pages: 1 -->
<svg width="674pt" height="261pt"
 viewBox="0.00 0.00 673.85 261.00" xmlns="http://www.w3.org/2000/svg" xmlns:xlink="http://www.w3.org/1999/xlink">
<g id="graph0" class="graph" transform="scale(1 1) rotate(0) translate(4 257)">
<title>G</title>
<polygon fill="#ffffff" stroke="transparent" points="-4,4 -4,-257 669.846,-257 669.846,4 -4,4"/>
<!-- level1 -->
<!-- level2 -->
<!-- level1&#45;&gt;level2 -->
<!-- level3 -->
<!-- level2&#45;&gt;level3 -->
<!-- level4 -->
<!-- level3&#45;&gt;level4 -->
<!-- start -->
<g id="node5" class="node">
<title>start</title>
<polygon fill="none" stroke="#ffffff" points="105.5,-216.5 105.5,-252.5 576.5,-252.5 576.5,-216.5 105.5,-216.5"/>
<text text-anchor="middle" x="122" y="-230.8" font-family="Times,serif" font-size="14.00" fill="#000000">mr</text>
<polyline fill="none" stroke="#ffffff" points="138.5,-216.5 138.5,-252.5 "/>
<text text-anchor="middle" x="198" y="-230.8" font-family="Times,serif" font-size="14.00" fill="#000000">:= io.MultiReader(</text>
<polyline fill="none" stroke="#ffffff" points="257.5,-216.5 257.5,-252.5 "/>
<text text-anchor="middle" x="293.5" y="-230.8" font-family="Times,serif" font-size="14.00" fill="#000000">io.Reader,</text>
<polyline fill="none" stroke="#ffffff" points="329.5,-216.5 329.5,-252.5 "/>
<text text-anchor="middle" x="365.5" y="-230.8" font-family="Times,serif" font-size="14.00" fill="#000000">io.Reader,</text>
<polyline fill="none" stroke="#ffffff" points="401.5,-216.5 401.5,-252.5 "/>
<text text-anchor="middle" x="437.5" y="-230.8" font-family="Times,serif" font-size="14.00" fill="#000000">io.Reader,</text>
<polyline fill="none" stroke="#ffffff" points="473.5,-216.5 473.5,-252.5 "/>
<text text-anchor="middle" x="488" y="-230.8" font-family="Times,serif" font-size="14.00" fill="#000000">...,</text>
<polyline fill="none" stroke="#ffffff" points="502.5,-216.5 502.5,-252.5 "/>
<text text-anchor="middle" x="539.5" y="-230.8" font-family="Times,serif" font-size="14.00" fill="#000000">io.Reader)</text>
</g>
<!-- mr -->
<g id="node6" class="node">
<title>mr</title>
<ellipse fill="#00ff00" stroke="#00ff00" cx="117" cy="-90" rx="44.6926" ry="18"/>
<text text-anchor="middle" x="117" y="-86.3" font-family="Times,serif" font-size="14.00" fill="#000000">io.Reader</text>
</g>
<!-- start&#45;&gt;mr -->
<g id="edge9" class="edge">
<title>start:l0&#45;&gt;mr</title>
<path fill="none" stroke="#000000" stroke-dasharray="1,5" d="M122,-216.5C122,-182.6524 120.1906,-143.7502 118.7488,-118.1234"/>
<polygon fill="#000000" stroke="#000000" points="122.2352,-117.7863 118.1597,-108.0067 115.247,-118.1933 122.2352,-117.7863"/>
</g>
<!-- r1 -->
<g id="node7" class="node">
<title>r1</title>
<ellipse fill="#d3d3d3" stroke="#d3d3d3" cx="225" cy="-90" rx="44.6926" ry="18"/>
<text text-anchor="middle" x="225" y="-86.3" font-family="Times,serif" font-size="14.00" fill="#000000">io.Reader</text>
</g>
<!-- r1&#45;&gt;start -->
<g id="edge10" class="edge">
<title>r1&#45;&gt;start:l1</title>
<path fill="none" stroke="#000000" stroke-dasharray="1,5" d="M241.1151,-106.8737C259.6526,-127.9852 288.1061,-166.2561 292.4389,-206.2926"/>
<polygon fill="#000000" stroke="#000000" points="288.9563,-206.7072 293,-216.5 295.9457,-206.3229 288.9563,-206.7072"/>
</g>
<!-- r1&#45;&gt;mr -->
<g id="edge4" class="edge">
<title>r1&#45;&gt;mr</title>
<path fill="none" stroke="#000000" d="M179.8198,-90C177.3337,-90 174.8475,-90 172.3614,-90"/>
<polygon fill="#000000" stroke="#000000" points="172.1407,-86.5001 162.1406,-90 172.1406,-93.5001 172.1407,-86.5001"/>
</g>
<!-- r2 -->
<g id="node8" class="node">
<title>r2</title>
<ellipse fill="#d3d3d3" stroke="#d3d3d3" cx="333" cy="-90" rx="44.6926" ry="18"/>
<text text-anchor="middle" x="333" y="-86.3" font-family="Times,serif" font-size="14.00" fill="#000000">io.Reader</text>
</g>
<!-- r2&#45;&gt;start -->
<g id="edge11" class="edge">
<title>r2&#45;&gt;start:l2</title>
<path fill="none" stroke="#000000" stroke-dasharray="1,5" d="M340.8205,-108.0495C349.7405,-130.1717 363.3913,-169.2773 365.6717,-206.1692"/>
<polygon fill="#000000" stroke="#000000" points="362.1841,-206.6162 366,-216.5 369.1805,-206.3938 362.1841,-206.6162"/>
</g>
<!-- r2&#45;&gt;r1 -->
<g id="edge5" class="edge">
<title>r2&#45;&gt;r1</title>
<path fill="none" stroke="#000000" d="M287.8198,-90C285.3337,-90 282.8475,-90 280.3614,-90"/>
<polygon fill="#000000" stroke="#000000" points="280.1407,-86.5001 270.1406,-90 280.1406,-93.5001 280.1407,-86.5001"/>
</g>
<!-- r3 -->
<g id="node9" class="node">
<title>r3</title>
<ellipse fill="#d3d3d3" stroke="#d3d3d3" cx="441" cy="-90" rx="44.6926" ry="18"/>
<text text-anchor="middle" x="441" y="-86.3" font-family="Times,serif" font-size="14.00" fill="#000000">io.Reader</text>
</g>
<!-- r3&#45;&gt;start -->
<g id="edge12" class="edge">
<title>r3&#45;&gt;start:l3</title>
<path fill="none" stroke="#000000" stroke-dasharray="1,5" d="M440.3042,-108.0124C439.4941,-130.436 438.2398,-170.2051 438.0302,-206.4026"/>
<polygon fill="#000000" stroke="#000000" points="434.53,-206.4895 438,-216.5 441.53,-206.5105 434.53,-206.4895"/>
</g>
<!-- r3&#45;&gt;r2 -->
<g id="edge6" class="edge">
<title>r3&#45;&gt;r2</title>
<path fill="none" stroke="#000000" d="M395.8198,-90C393.3337,-90 390.8475,-90 388.3614,-90"/>
<polygon fill="#000000" stroke="#000000" points="388.1407,-86.5001 378.1406,-90 388.1406,-93.5001 388.1407,-86.5001"/>
</g>
<!-- rD -->
<g id="node10" class="node">
<title>rD</title>
<ellipse fill="none" stroke="#ffffff" cx="531" cy="-90" rx="27" ry="18"/>
<text text-anchor="middle" x="531" y="-86.3" font-family="Times,serif" font-size="14.00" fill="#000000">...</text>
</g>
<!-- rD&#45;&gt;start -->
<!-- rD&#45;&gt;r3 -->
<g id="edge7" class="edge">
<title>rD&#45;&gt;r3</title>
<path fill="none" stroke="#000000" d="M503.9297,-90C501.3149,-90 498.7002,-90 496.0854,-90"/>
<polygon fill="#000000" stroke="#000000" points="496,-86.5001 486,-90 496,-93.5001 496,-86.5001"/>
</g>
<!-- rN -->
<g id="node11" class="node">
<title>rN</title>
<ellipse fill="#d3d3d3" stroke="#d3d3d3" cx="621" cy="-90" rx="44.6926" ry="18"/>
<text text-anchor="middle" x="621" y="-86.3" font-family="Times,serif" font-size="14.00" fill="#000000">io.Reader</text>
</g>
<!-- rN&#45;&gt;start -->
<g id="edge14" class="edge">
<title>rN&#45;&gt;start:lN</title>
<path fill="none" stroke="#000000" stroke-dasharray="1,5" d="M601.8041,-106.2722C579.6291,-126.8566 545.542,-164.6867 540.6043,-206.3998"/>
<polygon fill="#000000" stroke="#000000" points="537.1036,-206.3088 540,-216.5 544.0911,-206.7269 537.1036,-206.3088"/>
</g>
<!-- rN&#45;&gt;rD -->
<g id="edge8" class="edge">
<title>rN&#45;&gt;rD</title>
<path fill="none" stroke="#000000" d="M575.7693,-90C573.2804,-90 570.7915,-90 568.3025,-90"/>
<polygon fill="#000000" stroke="#000000" points="568.0703,-86.5001 558.0703,-90 568.0703,-93.5001 568.0703,-86.5001"/>
</g>
</g>
</svg>
