<?xml version="1.0" encoding="UTF-8" standalone="no"?>
<!DOCTYPE svg PUBLIC "-//W3C//DTD SVG 1.1//EN"
 "http://www.w3.org/Graphics/SVG/1.1/DTD/svg11.dtd">
<!-- Generated by graphviz version 2.40.1 (20161225.0304)
 -->
<!-- Title: G Pages: 1 -->
<svg width="664pt" height="261pt"
 viewBox="0.00 0.00 664.20 261.00" xmlns="http://www.w3.org/2000/svg" xmlns:xlink="http://www.w3.org/1999/xlink">
<g id="graph0" class="graph" transform="scale(1 1) rotate(0) translate(4 257)">
<title>G</title>
<polygon fill="#ffffff" stroke="transparent" points="-4,4 -4,-257 660.1961,-257 660.1961,4 -4,4"/>
<!-- level1 -->
<!-- level2 -->
<!-- level1&#45;&gt;level2 -->
<!-- level3 -->
<!-- level2&#45;&gt;level3 -->
<!-- level4 -->
<!-- level3&#45;&gt;level4 -->
<!-- start -->
<g id="node5" class="node">
<title>start</title>
<polygon fill="none" stroke="#ffffff" points="99.5,-216.5 99.5,-252.5 570.5,-252.5 570.5,-216.5 99.5,-216.5"/>
<text text-anchor="middle" x="118" y="-230.8" font-family="Times,serif" font-size="14.00" fill="#000000">mw</text>
<polyline fill="none" stroke="#ffffff" points="136.5,-216.5 136.5,-252.5 "/>
<text text-anchor="middle" x="195.5" y="-230.8" font-family="Times,serif" font-size="14.00" fill="#000000">:= io.MultiWriter(</text>
<polyline fill="none" stroke="#ffffff" points="254.5,-216.5 254.5,-252.5 "/>
<text text-anchor="middle" x="290" y="-230.8" font-family="Times,serif" font-size="14.00" fill="#000000">io.Writer,</text>
<polyline fill="none" stroke="#ffffff" points="325.5,-216.5 325.5,-252.5 "/>
<text text-anchor="middle" x="361" y="-230.8" font-family="Times,serif" font-size="14.00" fill="#000000">io.Writer,</text>
<polyline fill="none" stroke="#ffffff" points="396.5,-216.5 396.5,-252.5 "/>
<text text-anchor="middle" x="432" y="-230.8" font-family="Times,serif" font-size="14.00" fill="#000000">io.Writer,</text>
<polyline fill="none" stroke="#ffffff" points="467.5,-216.5 467.5,-252.5 "/>
<text text-anchor="middle" x="482" y="-230.8" font-family="Times,serif" font-size="14.00" fill="#000000">...,</text>
<polyline fill="none" stroke="#ffffff" points="496.5,-216.5 496.5,-252.5 "/>
<text text-anchor="middle" x="533.5" y="-230.8" font-family="Times,serif" font-size="14.00" fill="#000000">io.Writer)</text>
</g>
<!-- mw -->
<g id="node6" class="node">
<title>mw</title>
<ellipse fill="#00ff00" stroke="#00ff00" cx="116" cy="-90" rx="44.393" ry="18"/>
<text text-anchor="middle" x="116" y="-86.3" font-family="Times,serif" font-size="14.00" fill="#000000">io.Writer</text>
</g>
<!-- start&#45;&gt;mw -->
<g id="edge9" class="edge">
<title>start:l0&#45;&gt;mw</title>
<path fill="none" stroke="#000000" stroke-dasharray="1,5" d="M118,-216.5C118,-182.6746 117.2762,-143.7679 116.6995,-118.134"/>
<polygon fill="#000000" stroke="#000000" points="120.1958,-117.9299 116.4639,-108.0141 113.1977,-118.0929 120.1958,-117.9299"/>
</g>
<!-- w1 -->
<g id="node7" class="node">
<title>w1</title>
<ellipse fill="#d3d3d3" stroke="#d3d3d3" cx="222" cy="-90" rx="44.393" ry="18"/>
<text text-anchor="middle" x="222" y="-86.3" font-family="Times,serif" font-size="14.00" fill="#000000">io.Writer</text>
</g>
<!-- mw&#45;&gt;w1 -->
<g id="edge4" class="edge">
<title>mw&#45;&gt;w1</title>
<path fill="none" stroke="#000000" d="M160.3047,-90C162.7448,-90 165.1849,-90 167.625,-90"/>
<polygon fill="#000000" stroke="#000000" points="167.6565,-93.5001 177.6565,-90 167.6565,-86.5001 167.6565,-93.5001"/>
</g>
<!-- w1&#45;&gt;start -->
<g id="edge10" class="edge">
<title>w1&#45;&gt;start:l1</title>
<path fill="none" stroke="#000000" stroke-dasharray="1,5" d="M238.1151,-106.8737C256.6526,-127.9852 285.1061,-166.2561 289.4389,-206.2926"/>
<polygon fill="#000000" stroke="#000000" points="285.9563,-206.7072 290,-216.5 292.9457,-206.3229 285.9563,-206.7072"/>
</g>
<!-- w2 -->
<g id="node8" class="node">
<title>w2</title>
<ellipse fill="#d3d3d3" stroke="#d3d3d3" cx="328" cy="-90" rx="44.393" ry="18"/>
<text text-anchor="middle" x="328" y="-86.3" font-family="Times,serif" font-size="14.00" fill="#000000">io.Writer</text>
</g>
<!-- w1&#45;&gt;w2 -->
<g id="edge5" class="edge">
<title>w1&#45;&gt;w2</title>
<path fill="none" stroke="#000000" d="M266.3047,-90C268.7448,-90 271.1849,-90 273.625,-90"/>
<polygon fill="#000000" stroke="#000000" points="273.6565,-93.5001 283.6565,-90 273.6565,-86.5001 273.6565,-93.5001"/>
</g>
<!-- w2&#45;&gt;start -->
<g id="edge11" class="edge">
<title>w2&#45;&gt;start:l2</title>
<path fill="none" stroke="#000000" stroke-dasharray="1,5" d="M335.8205,-108.0495C344.7405,-130.1717 358.3913,-169.2773 360.6717,-206.1692"/>
<polygon fill="#000000" stroke="#000000" points="357.1841,-206.6162 361,-216.5 364.1805,-206.3938 357.1841,-206.6162"/>
</g>
<!-- w3 -->
<g id="node9" class="node">
<title>w3</title>
<ellipse fill="#d3d3d3" stroke="#d3d3d3" cx="434" cy="-90" rx="44.393" ry="18"/>
<text text-anchor="middle" x="434" y="-86.3" font-family="Times,serif" font-size="14.00" fill="#000000">io.Writer</text>
</g>
<!-- w2&#45;&gt;w3 -->
<g id="edge6" class="edge">
<title>w2&#45;&gt;w3</title>
<path fill="none" stroke="#000000" d="M372.3047,-90C374.7448,-90 377.1849,-90 379.625,-90"/>
<polygon fill="#000000" stroke="#000000" points="379.6565,-93.5001 389.6565,-90 379.6565,-86.5001 379.6565,-93.5001"/>
</g>
<!-- w3&#45;&gt;start -->
<g id="edge12" class="edge">
<title>w3&#45;&gt;start:l3</title>
<path fill="none" stroke="#000000" stroke-dasharray="1,5" d="M433.5361,-108.0141C432.9961,-130.4396 432.1599,-170.2107 432.0201,-206.4039"/>
<polygon fill="#000000" stroke="#000000" points="428.52,-206.493 432,-216.5 435.52,-206.507 428.52,-206.493"/>
</g>
<!-- wD -->
<g id="node10" class="node">
<title>wD</title>
<ellipse fill="none" stroke="#ffffff" cx="523" cy="-90" rx="27" ry="18"/>
<text text-anchor="middle" x="523" y="-86.3" font-family="Times,serif" font-size="14.00" fill="#000000">...</text>
</g>
<!-- w3&#45;&gt;wD -->
<g id="edge7" class="edge">
<title>w3&#45;&gt;wD</title>
<path fill="none" stroke="#000000" d="M478.5,-90C480.9445,-90 483.3889,-90 485.8334,-90"/>
<polygon fill="#000000" stroke="#000000" points="485.8828,-93.5001 495.8828,-90 485.8828,-86.5001 485.8828,-93.5001"/>
</g>
<!-- wD&#45;&gt;start -->
<!-- wN -->
<g id="node11" class="node">
<title>wN</title>
<ellipse fill="#d3d3d3" stroke="#d3d3d3" cx="612" cy="-90" rx="44.393" ry="18"/>
<text text-anchor="middle" x="612" y="-86.3" font-family="Times,serif" font-size="14.00" fill="#000000">io.Writer</text>
</g>
<!-- wD&#45;&gt;wN -->
<g id="edge8" class="edge">
<title>wD&#45;&gt;wN</title>
<path fill="none" stroke="#000000" d="M550.1172,-90C552.5647,-90 555.0122,-90 557.4597,-90"/>
<polygon fill="#000000" stroke="#000000" points="557.5218,-93.5001 567.5217,-90 557.5217,-86.5001 557.5218,-93.5001"/>
</g>
<!-- wN&#45;&gt;start -->
<g id="edge14" class="edge">
<title>wN&#45;&gt;start:lN</title>
<path fill="none" stroke="#000000" stroke-dasharray="1,5" d="M593.5151,-106.4179C572.1613,-127.1516 539.3367,-165.1453 534.582,-206.4971"/>
<polygon fill="#000000" stroke="#000000" points="531.0868,-206.3136 534,-216.5 538.075,-206.7202 531.0868,-206.3136"/>
</g>
</g>
</svg>
