<?xml version="1.0" encoding="UTF-8" standalone="no"?>
<!DOCTYPE svg PUBLIC "-//W3C//DTD SVG 1.1//EN"
 "http://www.w3.org/Graphics/SVG/1.1/DTD/svg11.dtd">
<!-- Generated by graphviz version 2.40.1 (20161225.0304)
 -->
<!-- Title: G Pages: 1 -->
<svg width="404pt" height="261pt"
 viewBox="0.00 0.00 404.50 261.00" xmlns="http://www.w3.org/2000/svg" xmlns:xlink="http://www.w3.org/1999/xlink">
<g id="graph0" class="graph" transform="scale(1 1) rotate(0) translate(4 257)">
<title>G</title>
<polygon fill="#ffffff" stroke="transparent" points="-4,4 -4,-257 400.4971,-257 400.4971,4 -4,4"/>
<!-- level1 -->
<!-- level2 -->
<!-- level1&#45;&gt;level2 -->
<!-- level3 -->
<!-- level2&#45;&gt;level3 -->
<!-- level4 -->
<!-- level3&#45;&gt;level4 -->
<!-- start -->
<g id="node5" class="node">
<title>start</title>
<polygon fill="none" stroke="#ffffff" points="130.5,-216.5 130.5,-252.5 313.5,-252.5 313.5,-216.5 130.5,-216.5"/>
<text text-anchor="middle" x="158" y="-230.8" font-family="Times,serif" font-size="14.00" fill="#000000">reader,</text>
<polyline fill="none" stroke="#ffffff" points="185.5,-216.5 185.5,-252.5 "/>
<text text-anchor="middle" x="210.5" y="-230.8" font-family="Times,serif" font-size="14.00" fill="#000000">writer</text>
<polyline fill="none" stroke="#ffffff" points="235.5,-216.5 235.5,-252.5 "/>
<text text-anchor="middle" x="274.5" y="-230.8" font-family="Times,serif" font-size="14.00" fill="#000000">:= io.Pipe()</text>
</g>
<!-- writer1 -->
<g id="node6" class="node">
<title>writer1</title>
<ellipse fill="#00ff00" stroke="#00ff00" cx="224" cy="-90" rx="44.393" ry="18"/>
<text text-anchor="middle" x="224" y="-86.3" font-family="Times,serif" font-size="14.00" fill="#000000">io.Writer</text>
</g>
<!-- start&#45;&gt;writer1 -->
<g id="edge8" class="edge">
<title>start:l2&#45;&gt;writer1</title>
<path fill="none" stroke="#000000" stroke-dasharray="1,5" d="M210,-216.5C210,-182.6657 215.0089,-144.0482 219.0346,-118.4748"/>
<polygon fill="#000000" stroke="#000000" points="222.528,-118.7981 220.6822,-108.3653 215.6191,-117.672 222.528,-118.7981"/>
</g>
<!-- reader1 -->
<g id="node7" class="node">
<title>reader1</title>
<ellipse fill="#00ff00" stroke="#00ff00" cx="117" cy="-90" rx="44.6926" ry="18"/>
<text text-anchor="middle" x="117" y="-86.3" font-family="Times,serif" font-size="14.00" fill="#000000">io.Reader</text>
</g>
<!-- start&#45;&gt;reader1 -->
<g id="edge7" class="edge">
<title>start:l1&#45;&gt;reader1</title>
<path fill="none" stroke="#000000" stroke-dasharray="1,5" d="M158,-216.5C158,-180.8331 143.068,-142.1445 131.2265,-117.071"/>
<polygon fill="#000000" stroke="#000000" points="134.2526,-115.2916 126.7164,-107.8446 127.9637,-118.3658 134.2526,-115.2916"/>
</g>
<!-- writer1&#45;&gt;reader1 -->
<g id="edge6" class="edge">
<title>writer1&#45;&gt;reader1</title>
<path fill="none" stroke="#000000" d="M179.5386,-90C177.092,-90 174.6454,-90 172.1988,-90"/>
<polygon fill="#000000" stroke="#000000" points="172.1407,-86.5001 162.1406,-90 172.1406,-93.5001 172.1407,-86.5001"/>
</g>
<!-- align3 -->
<!-- writer1&#45;&gt;align3 -->
<!-- align1 -->
<!-- reader1&#45;&gt;align1 -->
<!-- align2 -->
<!-- invis -->
</g>
</svg>
