<?xml version="1.0" encoding="UTF-8" standalone="no"?>
<!DOCTYPE svg PUBLIC "-//W3C//DTD SVG 1.1//EN"
 "http://www.w3.org/Graphics/SVG/1.1/DTD/svg11.dtd">
<!-- Generated by graphviz version 2.40.1 (20161225.0304)
 -->
<!-- Title: G Pages: 1 -->
<svg width="353pt" height="261pt"
 viewBox="0.00 0.00 353.50 261.00" xmlns="http://www.w3.org/2000/svg" xmlns:xlink="http://www.w3.org/1999/xlink">
<g id="graph0" class="graph" transform="scale(1 1) rotate(0) translate(4 257)">
<title>G</title>
<polygon fill="#ffffff" stroke="transparent" points="-4,4 -4,-257 349.4971,-257 349.4971,4 -4,4"/>
<!-- level1 -->
<!-- level2 -->
<!-- level1&#45;&gt;level2 -->
<!-- level3 -->
<!-- level2&#45;&gt;level3 -->
<!-- level4 -->
<!-- level3&#45;&gt;level4 -->
<!-- start -->
<g id="node5" class="node">
<title>start</title>
<polygon fill="none" stroke="#ffffff" points="72.5,-216.5 72.5,-252.5 275.5,-252.5 275.5,-216.5 72.5,-216.5"/>
<text text-anchor="middle" x="83" y="-230.8" font-family="Times,serif" font-size="14.00" fill="#000000">t</text>
<polyline fill="none" stroke="#ffffff" points="93.5,-216.5 93.5,-252.5 "/>
<text text-anchor="middle" x="148" y="-230.8" font-family="Times,serif" font-size="14.00" fill="#000000">:= io.TeeReader(</text>
<polyline fill="none" stroke="#ffffff" points="202.5,-216.5 202.5,-252.5 "/>
<text text-anchor="middle" x="215" y="-230.8" font-family="Times,serif" font-size="14.00" fill="#000000">r,</text>
<polyline fill="none" stroke="#ffffff" points="227.5,-216.5 227.5,-252.5 "/>
<text text-anchor="middle" x="240.5" y="-230.8" font-family="Times,serif" font-size="14.00" fill="#000000">w</text>
<polyline fill="none" stroke="#ffffff" points="253.5,-216.5 253.5,-252.5 "/>
<text text-anchor="middle" x="264.5" y="-230.8" font-family="Times,serif" font-size="14.00" fill="#000000">)</text>
</g>
<!-- reader1_1 -->
<g id="node9" class="node">
<title>reader1_1</title>
<ellipse fill="#00ff00" stroke="#00ff00" cx="218" cy="-18" rx="44.6926" ry="18"/>
<text text-anchor="middle" x="218" y="-14.3" font-family="Times,serif" font-size="14.00" fill="#000000">io.Reader</text>
</g>
<!-- start&#45;&gt;reader1_1 -->
<g id="edge11" class="edge">
<title>start:l1&#45;&gt;reader1_1</title>
<path fill="none" stroke="#000000" stroke-dasharray="1,5" d="M83,-216.5C83,-183.1896 86.0243,-173.2294 102,-144 124.616,-102.6215 163.73,-64.1542 190.2209,-40.8716"/>
<polygon fill="#000000" stroke="#000000" points="192.7256,-43.333 198.0048,-34.1471 188.1494,-38.036 192.7256,-43.333"/>
</g>
<!-- tee -->
<g id="node6" class="node">
<title>tee</title>
<ellipse fill="#000000" stroke="#000000" cx="221" cy="-162" rx="1.8" ry="1.8"/>
</g>
<!-- writer1 -->
<g id="node7" class="node">
<title>writer1</title>
<ellipse fill="#d3d3d3" stroke="#d3d3d3" cx="285" cy="-162" rx="44.393" ry="18"/>
<text text-anchor="middle" x="285" y="-158.3" font-family="Times,serif" font-size="14.00" fill="#000000">io.Writer</text>
</g>
<!-- tee&#45;&gt;writer1 -->
<g id="edge6" class="edge">
<title>tee&#45;&gt;writer1</title>
<path fill="none" stroke="#000000" stroke-width="2" d="M223,-162C225.4521,-162 227.9043,-162 230.3564,-162"/>
<polygon fill="#000000" stroke="#000000" stroke-width="2" points="230.4375,-165.5001 240.4375,-162 230.4375,-158.5001 230.4375,-165.5001"/>
</g>
<!-- tee&#45;&gt;reader1_1 -->
<g id="edge5" class="edge">
<title>tee&#45;&gt;reader1_1</title>
<path fill="none" stroke="#000000" stroke-width="2" d="M220.9576,-159.9644C220.7048,-147.8302 219.381,-84.2869 218.5927,-46.4488"/>
<polygon fill="#000000" stroke="#000000" stroke-width="2" points="222.0841,-45.994 218.3764,-36.0692 215.0856,-46.1399 222.0841,-45.994"/>
</g>
<!-- writer1&#45;&gt;start -->
<g id="edge10" class="edge">
<title>writer1&#45;&gt;start:l3</title>
<path fill="none" stroke="#000000" stroke-dasharray="1,5" d="M262.7422,-177.8047C254.3014,-185.3208 245.9111,-195.1196 242.5426,-206.3193"/>
<polygon fill="#000000" stroke="#000000" points="239.0377,-206.0885 241,-216.5 245.9587,-207.1372 239.0377,-206.0885"/>
</g>
<!-- align2 -->
<!-- writer1&#45;&gt;align2 -->
<!-- reader1_0 -->
<g id="node8" class="node">
<title>reader1_0</title>
<ellipse fill="#d3d3d3" stroke="#d3d3d3" cx="156" cy="-162" rx="44.6926" ry="18"/>
<text text-anchor="middle" x="156" y="-158.3" font-family="Times,serif" font-size="14.00" fill="#000000">io.Reader</text>
</g>
<!-- reader1_0&#45;&gt;start -->
<g id="edge9" class="edge">
<title>reader1_0&#45;&gt;start:l2</title>
<path fill="none" stroke="#000000" stroke-dasharray="1,5" d="M185.5,-175.8634C197.3691,-183.2366 209.2383,-193.4991 213.4219,-206.5269"/>
<polygon fill="#000000" stroke="#000000" points="209.98,-207.1699 215,-216.5 216.894,-206.0758 209.98,-207.1699"/>
</g>
<!-- reader1_0&#45;&gt;tee -->
<g id="edge4" class="edge">
<title>reader1_0&#45;&gt;tee</title>
<path fill="none" stroke="#000000" stroke-width="2" d="M200.9414,-162C207.0008,-162 213.0601,-162 219.1195,-162"/>
</g>
<!-- align1 -->
<!-- reader1_0&#45;&gt;align1 -->
</g>
</svg>
